# xmcd
#
# Track frame offsets:
#	150
#	14605
#	32281
#	52220
#	72096
#	87715
#	103770
#	121926
#	139210
#	156474
#	174075
#	186926
#	200657
#	233042
#	254928
#	273853
#
# Disc length: 3854 seconds
# Revision: 1
# Processed by: cddbd v1.5.2PL0 Copyright (c) Steve Scherf et al.
# Submitted via: dBpowerAMP V12.0
#
DISCID=ed0f0c10
DTITLE=Various Artist - New Country Music Vol. 2
DYEAR=2017
DGENRE=Country Sampler
TTITLE0=Western Centuries - Philosophers And Fools
TTITLE1=The Wood Brothers - Raindrop
TTITLE2=Jess Klein - Long Way Down
TTITLE3=Roger Chapman - One More Time For Peace
TTITLE4=Stacie Collins - Jani
TTITLE5=The Bellamy Brothers - Time Rocks On
TTITLE6=Kevin Chase - Kiss Me Like That
TTITLE7=John Campbelljohn - She's Gone
TTITLE8=The South Austin Moonlighters - Fallin' Down
TTITLE9=Flynnville Train - On Our Way
TTITLE10=Nick Riggins - Black Patch
TTITLE11=Rick Monroe - Baby Angel
TTITLE12=Dean Collins - Buffalo River Home
TTITLE13=Hot'n'Nasty - Going Nowhere
TTITLE14=Tony Furtado - Give Me Yor Soul
TTITLE15=Bonnie Tyler - Flat On The Floor
EXTD=
EXTT0=
EXTT1=
EXTT2=
EXTT3=
EXTT4=
EXTT5=
EXTT6=
EXTT7=
EXTT8=
EXTT9=
EXTT10=
EXTT11=
EXTT12=
EXTT13=
EXTT14=
EXTT15=
PLAYORDER=
